# xmcd CD database file
#
# Track frame offsets:
#	150
#	15825
#	27937
#	38989
#	52360
#	62937
#	74392
#	86697
#	98250
#	108885
#	123735
#	134782
#	147952
#	164010
#	176770
#
# Disc length: 2603 seconds
#
# Revision: 9
# Processed by: cddbd v1.5.1PL0 Copyright (c) Steve Scherf et al.
# Submitted via: CDex 1.51
#
DISCID=db0a290f
DTITLE=Various Artist - Classic Country Early 70's
DYEAR=1999
DGENRE=Country
TTITLE0=Kris Kristofferson - Why Me
TTITLE1=Marie Osmond - Paper Roses
TTITLE2=Conway Twitty - Hello Darlin'
TTITLE3=George Jones - We're Gonna Hold On (w Tammy Wynette)
TTITLE4=Sonny James - Empty Arms
TTITLE5=Donna Fargo - Happiest Girl in the Whole USA
TTITLE6=Charlie Rich - Most Beautiful Girl, The
TTITLE7=Sammi Smith - Help Me Make It Through the Night
TTITLE8=Jerry Reed - When You're Hot, You're Hot
TTITLE9=Jeanne Pruett - Satin Sheets
TTITLE10=Loretta Lynn - Lead Me On (w Conway Twitty)
TTITLE11=Tanya Tucker - Delta Dawn
TTITLE12=Marty Robbins - My Woman, My Woman, My Wife
TTITLE13=Lynn Anderson - How Can I Unlove You
TTITLE14=Johnny Cash - Sunday Morning Coming Down
EXTD=© 1999 Sony Music Entertainment\nTime Life Music ~ M18434 A32612\nTotal Time:  43:21\n\n"  ¶  "\n  ---- YEAR: 1999
EXTT0=
EXTT1=
EXTT2=
EXTT3=
EXTT4=
EXTT5=
EXTT6=
EXTT7=
EXTT8=
EXTT9=
EXTT10=
EXTT11=
EXTT12=
EXTT13=
EXTT14=
PLAYORDER=
